<svg width="1612" height="1036" viewBox="0 0 1612 1036" fill="none" xmlns="http://www.w3.org/2000/svg">
<path d="M988.113 433.727C991.375 439.227 989.503 
446.196 983.864 449.517L927.966 482.506L657.639
 642.067C652.025 645.064 646.955 647.423 642.454
  649.18C637.953 650.937 634.716 651.948 632.743 
  652.201C630.758 652.453 628.938 652.562 627.231 
  652.562C624.436 652.562 621.983 651.202 619.859 
  648.434C617.748 645.702 616.003 640.827 614.574 
  633.823C613.171 626.807 612.184 617.19 611.628 
  604.915C611.084 592.639 610.768 577.258 610.768 
  558.748C610.768 538.24 611.135 521.74 611.83 
  509.236C612.551 496.731 613.537 486.838 614.802
   479.593C616.066 472.348 617.887 467.209 620.277 
   464.212C622.666 461.215 625.562 458.712 628.925 
   456.69L799.706 362.6C805.864 359.218 813.361 358.857 
   819.848 361.637L944.605 415.109L988.113 433.727Z" fill="#D2E7E2"/>
<path d="M1057.98 281.802C1057.41 265.061 1056.29 251.811 1054.6 242.026C1052.92 232.278 1050.6 225.273 1047.63 221.001C1044.68 216.752 1040.78 213.382 1036.01 210.867L695.278 9.76047C695.24 9.7364 695.215 9.72437 695.177 9.71233C691.257 7.73857 687.742 6.12587 684.682 4.87422C681.585 3.62257 678.828 2.61162 676.426 1.87748C674.036 1.1313 671.874 0.625826 669.902 0.361053C667.917 0.120351 666.235 0 664.806 0C662.012 0 659.559 1.26369 657.435 3.75495C655.323 6.24622 653.578 10.7714 652.15 17.2583C650.746 23.7693 649.76 32.8919 649.204 44.6502C648.66 56.4206 648.344 71.5607 648.344 90.0467C648.344 109.074 648.71 124.479 649.406 136.225C650.127 147.96 651.113 157.347 652.377 164.351C653.642 171.368 655.462 176.483 657.852 179.732C660.242 183.006 663.137 185.353 666.5 186.857L1040.01 380.008C1048.75 383.751 1058.64 377.722 1058.71 368.599C1058.78 361.944 1058.8 354.903 1058.8 347.478C1058.82 320.447 1058.51 298.555 1057.98 281.802Z" fill="#D2E7E2"/>
<path d="M229.64 790.4L143.24 992H87.08L0.968 790.4H62.6L117.32 921.728L173.192 790.4H229.64ZM243.068 835.904H297.788V992H243.068V835.904ZM270.428 818.624C260.444 818.624 252.38 815.84 246.236 810.272C240.092 804.704 237.02 797.792 237.02 789.536C237.02 781.28 240.092 774.368 246.236 768.8C252.38 763.232 260.444 760.448 270.428 760.448C280.412 760.448 288.476 763.136 294.62 768.512C300.764 773.696 303.836 780.416 303.836 788.672C303.836 797.312 300.764 804.512 294.62 810.272C288.476 815.84 280.412 818.624 270.428 818.624ZM435.013 833.312C454.405 833.312 469.957 839.072 481.669 850.592C493.573 862.112 499.525 879.488 499.525 902.72V992H444.805V911.648C444.805 890.336 436.261 879.68 419.173 879.68C409.765 879.68 402.181 882.752 396.421 888.896C390.853 895.04 388.069 904.256 388.069 916.544V992H333.349V835.904H385.477V852.896C391.621 846.56 398.917 841.76 407.365 838.496C415.813 835.04 425.029 833.312 435.013 833.312ZM615.907 994.592C598.627 994.592 583.171 991.136 569.539 984.224C555.907 977.312 545.251 967.712 537.57 955.424C530.083 943.136 526.339 929.216 526.339 913.664C526.339 898.112 530.083 884.288 537.57 872.192C545.251 859.904 555.907 850.4 569.539 843.68C583.171 836.768 598.627 833.312 615.907 833.312C633.571 833.312 648.835 837.152 661.699 844.832C674.563 852.32 683.683 862.784 689.059 876.224L646.723 897.824C639.619 883.808 629.251 876.8 615.619 876.8C605.827 876.8 597.667 880.064 591.139 886.592C584.803 893.12 581.635 902.144 581.635 913.664C581.635 925.376 584.803 934.592 591.139 941.312C597.667 947.84 605.827 951.104 615.619 951.104C629.251 951.104 639.619 944.096 646.723 930.08L689.059 951.68C683.683 965.12 674.563 975.68 661.699 983.36C648.835 990.848 633.571 994.592 615.907 994.592ZM867.526 914.24C867.526 914.624 867.238 919.136 866.662 927.776H753.19C755.494 935.84 759.91 942.08 766.438 946.496C773.158 950.72 781.51 952.832 791.494 952.832C798.982 952.832 805.414 951.776 810.79 949.664C816.358 947.552 821.926 944.096 827.494 939.296L856.294 969.248C841.126 986.144 818.95 994.592 789.766 994.592C771.526 994.592 755.494 991.136 741.67 984.224C727.846 977.312 717.094 967.712 709.414 955.424C701.926 943.136 698.182 929.216 698.182 913.664C698.182 898.304 701.83 884.576 709.126 872.48C716.614 860.192 726.886 850.592 739.942 843.68C752.998 836.768 767.686 833.312 784.006 833.312C799.558 833.312 813.67 836.576 826.342 843.104C839.014 849.44 848.998 858.752 856.294 871.04C863.782 883.136 867.526 897.536 867.526 914.24ZM784.294 872.192C775.846 872.192 768.742 874.592 762.982 879.392C757.414 884.192 753.862 890.72 752.326 898.976H816.262C814.726 890.72 811.078 884.192 805.318 879.392C799.75 874.592 792.742 872.192 784.294 872.192ZM1000.47 985.664C995.86 988.544 990.196 990.752 983.476 992.288C976.948 993.824 969.94 994.592 962.452 994.592C942.1 994.592 926.452 989.6 915.508 979.616C904.564 969.632 899.092 954.752 899.092 934.976V882.56H876.34V841.664H899.092V801.056H953.812V841.664H989.524V882.56H953.812V934.4C953.812 939.968 955.252 944.384 958.132 947.648C961.204 950.72 965.236 952.256 970.228 952.256C976.564 952.256 982.132 950.624 986.932 947.36L1000.47 985.664ZM1176.62 914.24C1176.62 914.624 1176.33 919.136 1175.76 927.776H1062.28C1064.59 935.84 1069 942.08 1075.53 946.496C1082.25 950.72 1090.6 952.832 1100.59 952.832C1108.08 952.832 1114.51 951.776 1119.88 949.664C1125.45 947.552 1131.02 944.096 1136.59 939.296L1165.39 969.248C1150.22 986.144 1128.04 994.592 1098.86 994.592C1080.62 994.592 1064.59 991.136 1050.76 984.224C1036.94 977.312 1026.19 967.712 1018.51 955.424C1011.02 943.136 1007.28 929.216 1007.28 913.664C1007.28 898.304 1010.92 884.576 1018.22 872.48C1025.71 860.192 1035.98 850.592 1049.04 843.68C1062.09 836.768 1076.78 833.312 1093.1 833.312C1108.65 833.312 1122.76 836.576 1135.44 843.104C1148.11 849.44 1158.09 858.752 1165.39 871.04C1172.88 883.136 1176.62 897.536 1176.62 914.24ZM1093.39 872.192C1084.94 872.192 1077.84 874.592 1072.08 879.392C1066.51 884.192 1062.96 890.72 1061.42 898.976H1125.36C1123.82 890.72 1120.17 884.192 1114.41 879.392C1108.84 874.592 1101.84 872.192 1093.39 872.192ZM1281.63 994.592C1264.35 994.592 1248.89 991.136 1235.26 984.224C1221.63 977.312 1210.97 967.712 1203.29 955.424C1195.8 943.136 1192.06 929.216 1192.06 913.664C1192.06 898.112 1195.8 884.288 1203.29 872.192C1210.97 859.904 1221.63 850.4 1235.26 843.68C1248.89 836.768 1264.35 833.312 1281.63 833.312C1299.29 833.312 1314.55 837.152 1327.42 844.832C1340.28 852.32 1349.4 862.784 1354.78 876.224L1312.44 897.824C1305.34 883.808 1294.97 876.8 1281.34 876.8C1271.55 876.8 1263.39 880.064 1256.86 886.592C1250.52 893.12 1247.35 902.144 1247.35 913.664C1247.35 925.376 1250.52 934.592 1256.86 941.312C1263.39 947.84 1271.55 951.104 1281.34 951.104C1294.97 951.104 1305.34 944.096 1312.44 930.08L1354.78 951.68C1349.4 965.12 1340.28 975.68 1327.42 983.36C1314.55 990.848 1299.29 994.592 1281.63 994.592ZM1476.48 833.312C1495.87 833.312 1511.43 839.072 1523.14 850.592C1535.04 862.112 1540.99 879.488 1540.99 902.72V992H1486.27V911.648C1486.27 890.336 1477.73 879.68 1460.64 879.68C1451.23 879.68 1443.65 882.752 1437.89 888.896C1432.32 895.04 1429.54 904.256 1429.54 916.544V992H1374.82V778.304H1429.54V850.304C1435.49 844.736 1442.5 840.512 1450.56 837.632C1458.63 834.752 1467.27 833.312 1476.48 833.312Z" fill="#D2E6E2"/>
</svg>
