<svg width="2385" height="1053" viewBox="0 0 2385 1053" fill="none" xmlns="http://www.w3.org/2000/svg">
<line x1="36" y1="-1.60485e-08" x2="36" y2="1053" stroke="#D2E6E2" stroke-width="72"/>
<path d="M535.192 122.904L479.608 279H426.616L397.24 194.04L366.712 279H313.72L258.136 122.904H309.976L341.944 217.368L375.064 122.904H421.72L453.976 218.232L487.096 122.904H535.192ZM707.245 201.24C707.245 201.624 706.957 206.136 706.381 214.776H592.909C595.213 222.84 599.629 229.08 606.157 233.496C612.877 237.72 621.229 239.832 631.213 239.832C638.701 239.832 645.133 238.776 650.509 236.664C656.077 234.552 661.645 231.096 667.213 226.296L696.013 256.248C680.845 273.144 658.669 281.592 629.485 281.592C611.245 281.592 595.213 278.136 581.389 271.224C567.565 264.312 556.813 254.712 549.133 242.424C541.645 230.136 537.901 216.216 537.901 200.664C537.901 185.304 541.549 171.576 548.845 159.48C556.333 147.192 566.605 137.592 579.661 130.68C592.717 123.768 607.405 120.312 623.725 120.312C639.277 120.312 653.389 123.576 666.061 130.104C678.733 136.44 688.717 145.752 696.013 158.04C703.501 170.136 707.245 184.536 707.245 201.24ZM624.013 159.192C615.565 159.192 608.461 161.592 602.701 166.392C597.133 171.192 593.581 177.72 592.045 185.976H655.981C654.445 177.72 650.797 171.192 645.037 166.392C639.469 161.592 632.461 159.192 624.013 159.192ZM882.815 120.312C908.735 120.312 928.511 126.264 942.143 138.168C955.775 149.88 962.591 167.928 962.591 192.312V279H911.615V258.84C903.743 274.008 888.383 281.592 865.535 281.592C853.439 281.592 842.975 279.48 834.143 275.256C825.311 271.032 818.591 265.368 813.983 258.264C809.567 250.968 807.359 242.712 807.359 233.496C807.359 218.712 813.023 207.288 824.351 199.224C835.679 190.968 853.151 186.84 876.767 186.84H907.871C906.911 170.328 895.871 162.072 874.751 162.072C867.263 162.072 859.679 163.32 851.999 165.816C844.319 168.12 837.791 171.384 832.415 175.608L813.983 138.456C822.623 132.696 833.087 128.28 845.375 125.208C857.855 121.944 870.335 120.312 882.815 120.312ZM880.799 247.032C887.135 247.032 892.703 245.496 897.503 242.424C902.303 239.352 905.759 234.84 907.871 228.888V215.352H884.255C868.319 215.352 860.351 220.632 860.351 231.192C860.351 235.992 862.175 239.832 865.823 242.712C869.471 245.592 874.463 247.032 880.799 247.032ZM1049.26 141.624C1054.83 134.52 1062.03 129.24 1070.86 125.784C1079.88 122.136 1090.15 120.312 1101.67 120.312V169.56C1096.68 168.984 1092.55 168.696 1089.29 168.696C1077.58 168.696 1068.36 171.864 1061.64 178.2C1055.11 184.536 1051.85 194.232 1051.85 207.288V279H997.131V122.904H1049.26V141.624ZM1282.4 201.24C1282.4 201.624 1282.11 206.136 1281.54 214.776H1168.07C1170.37 222.84 1174.79 229.08 1181.31 233.496C1188.03 237.72 1196.39 239.832 1206.37 239.832C1213.86 239.832 1220.29 238.776 1225.67 236.664C1231.23 234.552 1236.8 231.096 1242.37 226.296L1271.17 256.248C1256 273.144 1233.83 281.592 1204.64 281.592C1186.4 281.592 1170.37 278.136 1156.55 271.224C1142.72 264.312 1131.97 254.712 1124.29 242.424C1116.8 230.136 1113.06 216.216 1113.06 200.664C1113.06 185.304 1116.71 171.576 1124 159.48C1131.49 147.192 1141.76 137.592 1154.82 130.68C1167.87 123.768 1182.56 120.312 1198.88 120.312C1214.43 120.312 1228.55 123.576 1241.22 130.104C1253.89 136.44 1263.87 145.752 1271.17 158.04C1278.66 170.136 1282.4 184.536 1282.4 201.24ZM1199.17 159.192C1190.72 159.192 1183.62 161.592 1177.86 166.392C1172.29 171.192 1168.74 177.72 1167.2 185.976H1231.14C1229.6 177.72 1225.95 171.192 1220.19 166.392C1214.63 161.592 1207.62 159.192 1199.17 159.192ZM1457.97 120.312C1483.89 120.312 1503.67 126.264 1517.3 138.168C1530.93 149.88 1537.75 167.928 1537.75 192.312V279H1486.77V258.84C1478.9 274.008 1463.54 281.592 1440.69 281.592C1428.6 281.592 1418.13 279.48 1409.3 275.256C1400.47 271.032 1393.75 265.368 1389.14 258.264C1384.72 250.968 1382.52 242.712 1382.52 233.496C1382.52 218.712 1388.18 207.288 1399.51 199.224C1410.84 190.968 1428.31 186.84 1451.92 186.84H1483.03C1482.07 170.328 1471.03 162.072 1449.91 162.072C1442.42 162.072 1434.84 163.32 1427.16 165.816C1419.48 168.12 1412.95 171.384 1407.57 175.608L1389.14 138.456C1397.78 132.696 1408.24 128.28 1420.53 125.208C1433.01 121.944 1445.49 120.312 1457.97 120.312ZM1455.96 247.032C1462.29 247.032 1467.86 245.496 1472.66 242.424C1477.46 239.352 1480.92 234.84 1483.03 228.888V215.352H1459.41C1443.48 215.352 1435.51 220.632 1435.51 231.192C1435.51 235.992 1437.33 239.832 1440.98 242.712C1444.63 245.592 1449.62 247.032 1455.96 247.032ZM442.456 416.304V630H390.328V614.448C380.152 626.544 364.888 632.592 344.536 632.592C330.328 632.592 317.368 629.328 305.656 622.8C293.944 616.08 284.632 606.576 277.72 594.288C271 582 267.64 567.792 267.64 551.664C267.64 535.536 271 521.424 277.72 509.328C284.632 497.04 293.944 487.632 305.656 481.104C317.368 474.576 330.328 471.312 344.536 471.312C363.16 471.312 377.56 476.688 387.736 487.44V416.304H442.456ZM356.056 589.104C365.464 589.104 373.24 585.84 379.384 579.312C385.528 572.592 388.6 563.376 388.6 551.664C388.6 540.144 385.528 531.12 379.384 524.592C373.432 518.064 365.656 514.8 356.056 514.8C346.456 514.8 338.584 518.064 332.44 524.592C326.296 531.12 323.224 540.144 323.224 551.664C323.224 563.376 326.296 572.592 332.44 579.312C338.584 585.84 346.456 589.104 356.056 589.104ZM637.214 552.24C637.214 552.624 636.926 557.136 636.35 565.776H522.878C525.182 573.84 529.598 580.08 536.126 584.496C542.846 588.72 551.198 590.832 561.182 590.832C568.67 590.832 575.102 589.776 580.478 587.664C586.046 585.552 591.614 582.096 597.182 577.296L625.982 607.248C610.814 624.144 588.638 632.592 559.454 632.592C541.214 632.592 525.182 629.136 511.358 622.224C497.534 615.312 486.782 605.712 479.102 593.424C471.614 581.136 467.87 567.216 467.87 551.664C467.87 536.304 471.518 522.576 478.814 510.48C486.302 498.192 496.574 488.592 509.63 481.68C522.686 474.768 537.374 471.312 553.694 471.312C569.246 471.312 583.358 474.576 596.03 481.104C608.702 487.44 618.686 496.752 625.982 509.04C633.47 521.136 637.214 535.536 637.214 552.24ZM553.982 510.192C545.534 510.192 538.43 512.592 532.67 517.392C527.102 522.192 523.55 528.72 522.014 536.976H585.95C584.414 528.72 580.766 522.192 575.006 517.392C569.438 512.592 562.43 510.192 553.982 510.192ZM824.079 473.904L759.567 630H703.119L638.894 473.904H695.055L732.495 569.232L771.951 473.904H824.079ZM993.558 552.24C993.558 552.624 993.27 557.136 992.694 565.776H879.222C881.526 573.84 885.942 580.08 892.469 584.496C899.19 588.72 907.542 590.832 917.526 590.832C925.014 590.832 931.446 589.776 936.822 587.664C942.39 585.552 947.958 582.096 953.526 577.296L982.326 607.248C967.158 624.144 944.982 632.592 915.798 632.592C897.558 632.592 881.526 629.136 867.702 622.224C853.878 615.312 843.126 605.712 835.445 593.424C827.958 581.136 824.214 567.216 824.214 551.664C824.214 536.304 827.862 522.576 835.158 510.48C842.646 498.192 852.918 488.592 865.974 481.68C879.03 474.768 893.718 471.312 910.038 471.312C925.59 471.312 939.702 474.576 952.374 481.104C965.046 487.44 975.03 496.752 982.326 509.04C989.814 521.136 993.558 535.536 993.558 552.24ZM910.326 510.192C901.878 510.192 894.774 512.592 889.014 517.392C883.446 522.192 879.894 528.72 878.358 536.976H942.294C940.758 528.72 937.11 522.192 931.35 517.392C925.782 512.592 918.774 510.192 910.326 510.192ZM1018.79 416.304H1073.51V630H1018.79V416.304ZM1187.4 632.592C1170.7 632.592 1155.63 629.136 1142.19 622.224C1128.75 615.312 1118.19 605.712 1110.51 593.424C1103.02 581.136 1099.28 567.216 1099.28 551.664C1099.28 536.304 1103.02 522.48 1110.51 510.192C1118.19 497.904 1128.65 488.4 1141.9 481.68C1155.34 474.768 1170.51 471.312 1187.4 471.312C1204.3 471.312 1219.47 474.768 1232.91 481.68C1246.35 488.4 1256.81 497.904 1264.3 510.192C1271.79 522.288 1275.53 536.112 1275.53 551.664C1275.53 567.216 1271.79 581.136 1264.3 593.424C1256.81 605.712 1246.35 615.312 1232.91 622.224C1219.47 629.136 1204.3 632.592 1187.4 632.592ZM1187.4 589.104C1197 589.104 1204.88 585.84 1211.02 579.312C1217.16 572.592 1220.24 563.376 1220.24 551.664C1220.24 540.144 1217.16 531.12 1211.02 524.592C1204.88 518.064 1197 514.8 1187.4 514.8C1177.8 514.8 1169.93 518.064 1163.79 524.592C1157.64 531.12 1154.57 540.144 1154.57 551.664C1154.57 563.376 1157.64 572.592 1163.79 579.312C1169.93 585.84 1177.8 589.104 1187.4 589.104ZM1399.09 471.312C1413.3 471.312 1426.16 474.672 1437.68 481.392C1449.39 487.92 1458.61 497.328 1465.33 509.616C1472.24 521.712 1475.7 535.824 1475.7 551.952C1475.7 568.08 1472.24 582.288 1465.33 594.576C1458.61 606.672 1449.39 616.08 1437.68 622.8C1426.16 629.328 1413.3 632.592 1399.09 632.592C1380.85 632.592 1366.35 627.12 1355.6 616.176V685.872H1300.88V473.904H1353.01V489.456C1363.18 477.36 1378.54 471.312 1399.09 471.312ZM1387.57 589.104C1397.17 589.104 1405.04 585.84 1411.18 579.312C1417.33 572.592 1420.4 563.472 1420.4 551.952C1420.4 540.432 1417.33 531.408 1411.18 524.88C1405.04 518.16 1397.17 514.8 1387.57 514.8C1377.97 514.8 1370.1 518.16 1363.95 524.88C1357.81 531.408 1354.74 540.432 1354.74 551.952C1354.74 563.472 1357.81 572.592 1363.95 579.312C1370.1 585.84 1377.97 589.104 1387.57 589.104ZM1704.46 471.312C1723.66 471.312 1738.92 477.072 1750.25 488.592C1761.77 500.112 1767.53 517.488 1767.53 540.72V630H1712.81V549.648C1712.81 538.704 1710.7 530.64 1706.47 525.456C1702.44 520.272 1696.68 517.68 1689.19 517.68C1680.94 517.68 1674.31 520.56 1669.32 526.32C1664.33 532.08 1661.83 540.816 1661.83 552.528V630H1607.11V549.648C1607.11 528.336 1599.24 517.68 1583.5 517.68C1575.05 517.68 1568.33 520.56 1563.34 526.32C1558.35 532.08 1555.85 540.816 1555.85 552.528V630H1501.13V473.904H1553.26V490.32C1559.02 483.984 1565.83 479.28 1573.71 476.208C1581.77 472.944 1590.51 471.312 1599.91 471.312C1610.86 471.312 1620.65 473.328 1629.29 477.36C1637.93 481.392 1644.94 487.536 1650.31 495.792C1656.46 487.92 1664.23 481.872 1673.64 477.648C1683.05 473.424 1693.32 471.312 1704.46 471.312ZM1963.87 552.24C1963.87 552.624 1963.58 557.136 1963.01 565.776H1849.53C1851.84 573.84 1856.25 580.08 1862.78 584.496C1869.5 588.72 1877.85 590.832 1887.84 590.832C1895.33 590.832 1901.76 589.776 1907.13 587.664C1912.7 585.552 1918.27 582.096 1923.84 577.296L1952.64 607.248C1937.47 624.144 1915.29 632.592 1886.11 632.592C1867.87 632.592 1851.84 629.136 1838.01 622.224C1824.19 615.312 1813.44 605.712 1805.76 593.424C1798.27 581.136 1794.53 567.216 1794.53 551.664C1794.53 536.304 1798.17 522.576 1805.47 510.48C1812.96 498.192 1823.23 488.592 1836.29 481.68C1849.34 474.768 1864.03 471.312 1880.35 471.312C1895.9 471.312 1910.01 474.576 1922.69 481.104C1935.36 487.44 1945.34 496.752 1952.64 509.04C1960.13 521.136 1963.87 535.536 1963.87 552.24ZM1880.64 510.192C1872.19 510.192 1865.09 512.592 1859.33 517.392C1853.76 522.192 1850.21 528.72 1848.67 536.976H1912.61C1911.07 528.72 1907.42 522.192 1901.66 517.392C1896.09 512.592 1889.09 510.192 1880.64 510.192ZM2090.76 471.312C2110.16 471.312 2125.71 477.072 2137.42 488.592C2149.32 500.112 2155.28 517.488 2155.28 540.72V630H2100.56V549.648C2100.56 528.336 2092.01 517.68 2074.92 517.68C2065.52 517.68 2057.93 520.752 2052.17 526.896C2046.6 533.04 2043.82 542.256 2043.82 554.544V630H1989.1V473.904H2041.23V490.896C2047.37 484.56 2054.67 479.76 2063.12 476.496C2071.56 473.04 2080.78 471.312 2090.76 471.312ZM2297.34 623.664C2292.73 626.544 2287.07 628.752 2280.35 630.288C2273.82 631.824 2266.81 632.592 2259.33 632.592C2238.97 632.592 2223.33 627.6 2212.38 617.616C2201.44 607.632 2195.97 592.752 2195.97 572.976V520.56H2173.21V479.664H2195.97V439.056H2250.69V479.664H2286.4V520.56H2250.69V572.4C2250.69 577.968 2252.13 582.384 2255.01 585.648C2258.08 588.72 2262.11 590.256 2267.1 590.256C2273.44 590.256 2279.01 588.624 2283.81 585.36L2297.34 623.664ZM343.096 822.312C369.016 822.312 388.792 828.264 402.424 840.168C416.056 851.88 422.872 869.928 422.872 894.312V981H371.896V960.84C364.024 976.008 348.664 983.592 325.816 983.592C313.72 983.592 303.256 981.48 294.424 977.256C285.592 973.032 278.872 967.368 274.264 960.264C269.848 952.968 267.64 944.712 267.64 935.496C267.64 920.712 273.304 909.288 284.632 901.224C295.96 892.968 313.432 888.84 337.048 888.84H368.152C367.192 872.328 356.152 864.072 335.032 864.072C327.544 864.072 319.96 865.32 312.28 867.816C304.6 870.12 298.072 873.384 292.696 877.608L274.264 840.456C282.904 834.696 293.368 830.28 305.656 827.208C318.136 823.944 330.616 822.312 343.096 822.312ZM341.08 949.032C347.416 949.032 352.984 947.496 357.784 944.424C362.584 941.352 366.04 936.84 368.152 930.888V917.352H344.536C328.6 917.352 320.632 922.632 320.632 933.192C320.632 937.992 322.456 941.832 326.104 944.712C329.752 947.592 334.744 949.032 341.08 949.032ZM627.566 824.904V952.488C627.566 981.48 619.694 1003.18 603.95 1017.58C588.206 1032.17 565.55 1039.46 535.982 1039.46C520.622 1039.46 506.222 1037.74 492.782 1034.28C479.342 1030.82 467.918 1025.74 458.51 1019.02L478.382 980.712C484.718 985.896 492.686 989.928 502.286 992.808C512.078 995.88 521.678 997.416 531.086 997.416C545.486 997.416 556.046 994.248 562.766 987.912C569.486 981.576 572.846 972.168 572.846 959.688V954.504C562.286 966.792 546.83 972.936 526.478 972.936C512.654 972.936 499.886 969.864 488.174 963.72C476.462 957.384 467.15 948.552 460.238 937.224C453.326 925.704 449.87 912.456 449.87 897.48C449.87 882.696 453.326 869.64 460.238 858.312C467.15 846.792 476.462 837.96 488.174 831.816C499.886 825.48 512.654 822.312 526.478 822.312C548.75 822.312 565.07 829.512 575.438 843.912V824.904H627.566ZM539.438 929.448C549.23 929.448 557.294 926.472 563.63 920.52C570.158 914.568 573.422 906.888 573.422 897.48C573.422 888.072 570.254 880.488 563.918 874.728C557.582 868.776 549.422 865.8 539.438 865.8C529.454 865.8 521.198 868.776 514.67 874.728C508.334 880.488 505.166 888.072 505.166 897.48C505.166 906.888 508.43 914.568 514.958 920.52C521.486 926.472 529.646 929.448 539.438 929.448ZM822.276 903.24C822.276 903.624 821.988 908.136 821.412 916.776H707.94C710.244 924.84 714.66 931.08 721.188 935.496C727.908 939.72 736.26 941.832 746.244 941.832C753.732 941.832 760.164 940.776 765.54 938.664C771.108 936.552 776.676 933.096 782.244 928.296L811.044 958.248C795.876 975.144 773.7 983.592 744.516 983.592C726.276 983.592 710.244 980.136 696.42 973.224C682.596 966.312 671.844 956.712 664.164 944.424C656.676 932.136 652.932 918.216 652.932 902.664C652.932 887.304 656.58 873.576 663.876 861.48C671.364 849.192 681.636 839.592 694.692 832.68C707.748 825.768 722.436 822.312 738.756 822.312C754.308 822.312 768.42 825.576 781.092 832.104C793.764 838.44 803.748 847.752 811.044 860.04C818.532 872.136 822.276 886.536 822.276 903.24ZM739.044 861.192C730.596 861.192 723.492 863.592 717.732 868.392C712.164 873.192 708.612 879.72 707.076 887.976H771.012C769.476 879.72 765.828 873.192 760.068 868.392C754.5 863.592 747.492 861.192 739.044 861.192ZM949.17 822.312C968.562 822.312 984.114 828.072 995.826 839.592C1007.73 851.112 1013.68 868.488 1013.68 891.72V981H958.962V900.648C958.962 879.336 950.418 868.68 933.33 868.68C923.922 868.68 916.338 871.752 910.578 877.896C905.01 884.04 902.226 893.256 902.226 905.544V981H847.506V824.904H899.634V841.896C905.778 835.56 913.074 830.76 921.522 827.496C929.97 824.04 939.186 822.312 949.17 822.312ZM1130.06 983.592C1112.78 983.592 1097.33 980.136 1083.69 973.224C1070.06 966.312 1059.41 956.712 1051.73 944.424C1044.24 932.136 1040.49 918.216 1040.49 902.664C1040.49 887.112 1044.24 873.288 1051.73 861.192C1059.41 848.904 1070.06 839.4 1083.69 832.68C1097.33 825.768 1112.78 822.312 1130.06 822.312C1147.73 822.312 1162.99 826.152 1175.85 833.832C1188.72 841.32 1197.84 851.784 1203.21 865.224L1160.88 886.824C1153.77 872.808 1143.41 865.8 1129.77 865.8C1119.98 865.8 1111.82 869.064 1105.29 875.592C1098.96 882.12 1095.79 891.144 1095.79 902.664C1095.79 914.376 1098.96 923.592 1105.29 930.312C1111.82 936.84 1119.98 940.104 1129.77 940.104C1143.41 940.104 1153.77 933.096 1160.88 919.08L1203.21 940.68C1197.84 954.12 1188.72 964.68 1175.85 972.36C1162.99 979.848 1147.73 983.592 1130.06 983.592ZM1385.45 824.904L1318.06 987.336C1310.19 1006.54 1300.59 1019.98 1289.26 1027.66C1277.93 1035.53 1264.11 1039.46 1247.79 1039.46C1239.53 1039.46 1231.18 1038.12 1222.73 1035.43C1214.48 1032.94 1207.76 1029.58 1202.57 1025.35L1221.58 987.048C1224.65 989.928 1228.3 992.136 1232.53 993.672C1236.94 995.4 1241.36 996.264 1245.77 996.264C1250.96 996.264 1255.18 995.208 1258.45 993.096C1261.9 990.984 1264.78 987.624 1267.09 983.016L1200.27 824.904H1256.43L1294.73 920.232L1333.33 824.904H1385.45Z" fill="black" fill-opacity="0.33"/>
</svg>


