<?xml version="1.0" encoding="utf-8"?>
<!-- Generator: Adobe Illustrator 23.0.0, SVG Export Plug-In . SVG Version: 6.00 Build 0)  -->
<svg version="1.1" id="图层_1" xmlns="http://www.w3.org/2000/svg" xmlns:xlink="http://www.w3.org/1999/xlink" x="0px" y="0px"
	 viewBox="0 0 595.28 841.89" style="enable-background:new 0 0 595.28 841.89;" xml:space="preserve">
<style type="text/css">
	.st0{fill:none;}
</style>
<path d="M306,324c-64.61,0-117,52.39-117,117c0,64.61,52.39,117,117,117s117-52.39,117-117C423,376.39,370.61,324,306,324z
	 M371.13,437.54c-0.47,5.9-3.09,11.96-7.88,18.17c-4.81,6.21-14.27,15.86-28.39,28.91c-9.98,9.28-18.54,17.91-25.58,25.9l-1.9,2.05
	c0.6-5.64,0.91-11.41,0.91-17.29c0-9.15-0.49-17.42-1.46-24.83c-17.47,6.84-26.21,16.12-26.21,27.79c0,3.15,0.99,6.66,2.99,10.5
	c-5.43-0.44-8.16-3.46-8.16-8.97c0-5.9,2.86-11.93,8.53-18.15c5.69-6.19,13.18-11.36,22.49-15.52c-2.13-18.2-6.92-32.45-14.33-42.82
	c-10.32-14.43-23.24-21.63-38.77-21.63c-10.92,0-19.97,3.93-27.17,11.78c-7.18,7.85-10.76,17.73-10.76,29.67
	c0,7.36,1.72,14.2,5.12,20.49c3.43,6.29,8.16,11.28,14.22,14.92c7.46,4.58,15.44,6.86,24,6.86c3.48,0,7.1-0.55,10.82-1.61l0.44,1.38
	c-5.93,3.04-12.17,4.58-18.67,4.58c-11.15,0-20.64-4.24-28.39-12.69c-7.77-8.45-11.67-18.75-11.67-30.89
	c0-14.33,4.68-26.36,13.99-36.11c9.31-9.75,20.83-14.61,34.55-14.61c9.02,0,17.39,2.39,25.09,7.2c7.7,4.78,14.01,11.6,18.93,20.36
	c5.54,9.75,9.46,22.85,11.8,39.31c1.07-0.39,1.64-0.6,1.74-0.6l15.39-5.33c11.23-3.93,20.8-8.79,28.73-14.64l1.51-1.14
	c-0.6-4.58-2.78-8.81-6.55-12.71c-3.43-3.61-7.67-6.37-12.66-8.29c-5.02-1.95-11.73-3.38-20.15-4.34l-2.76-0.31
	c2.5-2.08,4.84-4.68,7.02-7.77c4.52,0.36,11.13,0.55,19.86,0.55c21.29,0,37.08-0.36,47.4-1.07
	C390.42,417.34,382.39,427.64,371.13,437.54z"/>
<path d="M385.9,413.02c-3.51,8.11-8.5,15.13-15,21.01c-0.91-8.68-7.31-15.5-19.19-20.49h3.2l13.86-0.23l14.64-0.21L385.9,413.02z"/>
<path d="M362.37,444.93c-1.38,4.99-3.98,9.93-7.85,14.9c-3.85,4.94-10.5,11.88-19.94,20.75l-7.77,7.38
	c-3.98,3.72-7.54,7.28-10.74,10.69c0.39-4.68,0.6-10.43,0.6-17.24c0-5.46-0.18-10.19-0.52-14.14c0.91-0.31,1.38-0.47,1.43-0.47
	l13.18-4.11C342.04,459.12,352.57,453.22,362.37,444.93z"/>
<rect x="366.92" y="702" class="st0" width="2.08" height="0.11"/>
</svg>
