<?xml version="1.0" encoding="utf-8"?>
<!-- Generator: Adobe Illustrator 23.0.0, SVG Export Plug-In . SVG Version: 6.00 Build 0)  -->
<svg version="1.1" id="图层_1" xmlns="http://www.w3.org/2000/svg" xmlns:xlink="http://www.w3.org/1999/xlink" x="0px" y="0px"
	 viewBox="0 0 841.9 595.3" style="enable-background:new 0 0 841.9 595.3;" xml:space="preserve">
<style type="text/css">
	.st0{opacity:0.66;fill:#F4FBFD;}
	.st1{fill:url(#SVGID_1_);}
	.st2{fill:#2D3E48;}
</style>
<ellipse class="st0" cx="443.4" cy="297.6" rx="301.7" ry="298.1"/>
<linearGradient id="SVGID_1_" gradientUnits="userSpaceOnUse" x1="176.0088" y1="350.472" x2="503.2215" y2="350.472">
	<stop  offset="0" style="stop-color:#2D3E48"/>
	<stop  offset="1.391690e-02" style="stop-color:#2D3E48"/>
	<stop  offset="0.4184" style="stop-color:#2D3E48"/>
	<stop  offset="0.5742" style="stop-color:#2D3E48"/>
	<stop  offset="0.8876" style="stop-color:#182011"/>
	<stop  offset="0.9799" style="stop-color:#00583A"/>
</linearGradient>
<path class="st1" d="M492.4,421.2c18.1,14.6,12.6,43.5-9.7,50.4c-14.4,4.5-28.8,8.9-43.3,13.4c-0.7,0.2-1.4,0.4-2.1,0.7
	c-9.3,2.9-19.3,0.9-26.9-5.1c0,0-0.1-0.1-0.1-0.1c-74.5-60.1-149-120.2-223.5-180.3c-11.2-9.1-14.1-24.9-6.8-37.4l20.2-34.4
	c9-15.3,29.5-19.1,43.4-7.9l228.9,184.7L492.4,421.2z"/>
<path class="st2" d="M712.4,222.9c0,0-24.4-46.7-68.2-42.8c-6.2,8.4-12.5,16.9-18.7,25.3c-51.7,69.9-103.3,139.9-155,209.8
	c-16.3,22.1-32.6,44.1-48.9,66.2c-2.2,2.9,1.3,6.5,5.3,5.4l107.6-29.6c0.5-0.1,1,0.1,1.1,0.5c0.1,0.4,0.7,0.7,1.2,0.5
	c0.6-0.2,1.1-0.4,1.8-0.6c1.1-0.3,2-0.8,2.5-1.6l171.5-232.1C712.8,223.5,712.7,223.2,712.4,222.9z"/>
<path class="st2" d="M609.4,167.1H261.5c-6,0-10.9-4.9-10.9-10.9v-37c0-6,4.9-10.9,10.9-10.9h347.9c6,0,10.9,4.9,10.9,10.9v37
	C620.3,162.2,615.4,167.1,609.4,167.1z"/>
<polyline class="st2" points="474,342.4 474,409.2 396.9,409.2 396.9,342.4 "/>
<polyline class="st2" points="396.9,318.1 396.9,167.1 474,167.1 474,316.8 "/>
</svg>
