<svg width="20" height="20" viewBox="0 0 233 105" fill="none" xmlns="http://www.w3.org/2000/svg">
<path d="M75.256 74.48C75.256 83.984 72.664 91.28 67.48 96.368C62.392 101.456 55.24 104 46.024 104H32.2C20.872 104 12.808 102.032 8.008 98.096C3.304 94.16 0.952001 87.344 0.952001 77.648V1.472H44.296C54.088 1.472 61.432 3.92 66.328 8.816C71.32 13.712 73.816 20.624 73.816 29.552C73.816 34.736 72.472 39.152 69.784 42.8C67.192 46.448 64.312 49.04 61.144 50.576C70.552 54.992 75.256 62.96 75.256 74.48ZM42.712 41.504C50.104 41.504 53.8 37.808 53.8 30.416C53.8 23.024 50.104 19.328 42.712 19.328H20.968V41.504H42.712ZM55.24 73.472C55.24 68.864 54.424 65.408 52.792 63.104C51.16 60.704 48.232 59.504 44.008 59.504H20.968V75.632C20.968 79.568 21.928 82.304 23.848 83.84C25.864 85.376 29.128 86.144 33.64 86.144H44.008C51.496 86.144 55.24 81.92 55.24 73.472ZM150.885 104H138.357L132.597 94.064L112.581 104.864C101.445 104.864 93.9573 100.832 90.1173 92.768C88.1973 88.832 86.8533 84.608 86.0853 80.096C85.4133 75.488 85.0773 70.736 85.0773 65.84C85.0773 60.848 85.1253 57.2 85.2213 54.896C85.3173 52.496 85.5573 49.76 85.9413 46.688C86.3253 43.52 86.8533 40.88 87.5253 38.768C88.2933 36.656 89.3493 34.496 90.6933 32.288C92.0373 29.984 93.6693 28.16 95.5893 26.816C99.9093 23.84 105.525 22.352 112.437 22.352H132.165L150.885 21.2V104ZM132.165 77.792V39.2H117.909C112.629 39.2 108.933 41.216 106.821 45.248C104.805 49.28 103.797 55.328 103.797 63.392C103.797 71.36 104.757 76.976 106.677 80.24C108.693 83.504 112.437 85.136 117.909 85.136L132.165 77.792ZM195.119 57.2L198.287 41.36L207.215 45.536C210.863 40.928 212.687 34.928 212.687 27.536C212.687 25.616 211.535 23.504 209.231 21.2C207.023 18.896 203.519 17.744 198.719 17.744C194.015 17.744 190.799 18.8 189.071 20.912C187.343 23.024 186.479 27.008 186.479 32.864H168.911C168.911 21.824 171.407 13.712 176.399 8.52799C181.487 3.24799 189.119 0.607992 199.295 0.607992C220.223 0.607992 230.687 9.53599 230.687 27.392C230.687 37.856 227.519 46.352 221.183 52.88C228.479 57.008 232.127 64.832 232.127 76.352C232.127 85.28 229.247 92.288 223.487 97.376C217.823 102.368 209.855 104.864 199.583 104.864C189.311 104.864 181.631 102.224 176.543 96.944C171.551 91.664 169.055 84.608 169.055 75.776H187.343C187.343 77.408 187.535 79.04 187.919 80.672C188.399 82.208 189.551 83.792 191.375 85.424C193.199 86.96 196.079 87.728 200.015 87.728C204.047 87.728 207.263 86.48 209.663 83.984C212.159 81.392 213.407 78.512 213.407 75.344C213.407 71.984 212.783 69.536 211.535 68C210.383 66.464 209.519 65.36 208.943 64.688C208.367 63.92 207.263 63.104 205.631 62.24C204.095 61.376 203.039 60.8 202.463 60.512C201.887 60.128 200.591 59.552 198.575 58.784C196.655 57.92 195.503 57.392 195.119 57.2Z" fill="white"/>
</svg>
