<?xml version="1.0" encoding="utf-8"?>
<!-- Generator: Adobe Illustrator 23.0.0, SVG Export Plug-In . SVG Version: 6.00 Build 0)  -->
<svg version="1.1" id="图层_1" xmlns="http://www.w3.org/2000/svg" xmlns:xlink="http://www.w3.org/1999/xlink" x="0px" y="0px"
	 viewBox="0 0 841.89 595.28" style="enable-background:new 0 0 841.89 595.28;" xml:space="preserve">
<style type="text/css">
	.st0{fill:#21375f;}
	.st1{fill:#fff;}
	.st2{fill:#464651;stroke:#000000;stroke-miterlimit:10;}
	.st3{fill:#AAA778;stroke:#000000;stroke-miterlimit:10;}
</style>
<path class="st0" d="M720.43,275.46c-34.79,40.6-69.55,81.19-104.31,121.79c-51.77,60.48-103.56,120.95-155.35,181.43L135.3,331.37
	L394.93,28.15L720.43,275.46z"/>
<g>
	<path class="st1" d="M298.91,365.22c-2.48,0.49-5.01,0.8-7.61,0.95c1.09,0.08,2.19,0.11,3.3,0.1c2.44-0.02,4.83-0.18,7.16-0.49
		C300.8,365.63,299.85,365.44,298.91,365.22z M296.65,191.45c-0.94,0.01-1.86,0.04-2.78,0.11c2.39,0.15,4.77,0.48,7.12,0.99
		c1.02-0.24,2.05-0.43,3.09-0.59C301.63,191.6,299.15,191.43,296.65,191.45z"/>
	<path class="st1" d="M341.2,368.89c-10.43,6.66-21.53,10.04-33.31,10.13c-2.39,0.02-4.74-0.13-7.03-0.44
		c-1.02-0.13-2.03-0.3-3.03-0.51c-2.43,0.45-4.89,0.73-7.39,0.86c-0.94,0.06-1.9,0.08-2.85,0.09c-11.95,0.09-22.6-3.87-31.95-11.87
		c-9.35-8.01-16.63-19.35-21.84-34.01c-5.21-14.66-7.88-31.28-8.03-49.85c-0.15-19.75,2.46-37.61,7.83-53.61
		c5.37-15.99,13.02-28.44,22.95-37.34c9.92-8.91,21.2-13.41,33.83-13.51c1.24-0.01,2.48,0.02,3.7,0.09
		c2.48,0.12,4.93,0.39,7.35,0.82c6.22,1.06,12.24,3.1,18.06,6.11l0.05,6.35c-2.94-0.52-5.92-0.77-8.93-0.75
		c-2.23,0.02-4.41,0.19-6.53,0.51c-2.45-0.36-4.93-0.53-7.43-0.51c-0.94,0.01-1.86,0.04-2.78,0.11c-1.18-0.09-2.37-0.12-3.56-0.11
		c-5.58,0.05-10.82,1.05-15.72,3.01c-2.83,2.78-5.45,5.88-7.88,9.28c-7.99,7.55-14.14,17.97-18.44,31.25
		c-4.46,13.74-6.62,29.35-6.48,46.85c0.13,16.66,2.41,31.44,6.84,44.36c3.57,10.42,8.31,18.89,14.21,25.42
		c2.55,4.13,5.37,7.83,8.48,11.1c5.26,2.42,10.91,3.6,16.94,3.55c1.02-0.01,2.03-0.04,3.04-0.1c1.09,0.08,2.19,0.11,3.3,0.1
		c2.44-0.02,4.83-0.18,7.16-0.49c0.01,0,0.01,0,0.01,0c2.21,0.35,4.47,0.51,6.79,0.49c4.26-0.04,8.37-0.5,12.31-1.4
		c2.16-0.49,4.27-1.11,6.33-1.85c4.9-1.77,9.53-4.27,13.9-7.5L341.2,368.89z"/>
	<path class="st1" d="M412.26,362.35v-0.16l-32.46,0.25l-9.43,0.08l-4.52,0.03l-6.35,0.05l-1.39-180.99v-0.05l-9.43,0.07
		l1.49,193.53l6.34-0.05l13.96-0.11l41.88-0.32L412.26,362.35z"/>
	<path class="st1" d="M537.38,223.53c-4.34-12.66-10.19-22.87-17.53-30.59c-1.22-1.29-2.49-2.52-3.8-3.67
		c-6.4-5.63-13.41-9.27-21.04-10.91c-8.52,1.72-16.25,5.61-23.17,11.66c-1.09,0.95-2.14,1.95-3.17,2.99
		c4.64-1.99,9.58-3.01,14.81-3.05c1.22-0.01,2.41,0.03,3.59,0.11c2.48,0.17,4.87,0.55,7.18,1.13c10.94,2.72,19.95,9.98,27.04,21.77
		c9.29,15.47,14.04,36.57,14.25,63.3c0.21,27.58-4.29,49.19-13.52,64.83c-7.21,12.24-16.59,19.73-28.13,22.48
		c-2.32,0.54-4.71,0.9-7.2,1.07c-0.98,0.07-1.97,0.1-2.97,0.11c-5.51,0.04-10.67-0.95-15.49-2.96c1.25,1.31,2.56,2.54,3.9,3.71
		c6.55,5.68,13.78,9.34,21.71,10.99c8.53-1.74,16.2-5.74,23.01-11.99c0.91-0.83,1.79-1.7,2.66-2.6c8.03-8.36,14.25-19.62,18.64-33.8
		c4.86-15.7,7.21-33.75,7.06-54.16C545.06,255.13,542.45,238.32,537.38,223.53z"/>
	<path class="st1" d="M472.13,365.51c6.55,5.68,13.78,9.34,21.71,10.99c-2.29,0.46-4.64,0.77-7.05,0.9c-0.92,0.06-1.86,0.09-2.8,0.1
		c-12.12,0.1-22.84-3.9-32.16-11.99c-9.33-8.09-16.56-19.59-21.72-34.51c-5.15-14.91-7.81-31.94-7.95-51.1
		c-0.16-20.41,2.3-38.4,7.4-53.97c5.09-15.58,12.41-27.55,21.98-35.91c9.56-8.36,20.66-12.59,33.28-12.69
		c1.19-0.01,2.37,0.02,3.54,0.1c0.02-0.01,0.03-0.01,0.05,0c2.25,0.15,4.45,0.46,6.6,0.93c-8.52,1.72-16.25,5.61-23.17,11.66
		c-1.09,0.95-2.14,1.95-3.17,2.99c-3.19,3.23-6.1,6.9-8.73,11.03c-6.63,7.22-11.82,16.76-15.58,28.63
		c-4.26,13.44-6.32,28.66-6.19,45.65c0.14,17.33,2.33,32.56,6.6,45.68c3.77,11.61,8.93,20.85,15.5,27.71
		c2.43,3.74,5.08,7.1,7.96,10.09C469.48,363.11,470.79,364.34,472.13,365.51z"/>
	<path class="st1" d="M598.86,192.45l37.97-0.3l-0.09-12.59v-0.15l-85.21,0.66l0.1,12.74l6.34-0.05l13.96-0.11l17.67-0.13v0.16
		l1.4,180.63l6.34-0.05l2.92-0.02l-1.4-180.64V192.45z"/>
	<path class="st1" d="M753.47,279.63l-0.1-12.5l-0.68-88.57v-0.04l-9.26,0.07l0.68,88.45l-54.62,0.42l-9.43,0.08l-4.53,0.03
		l-6.34,0.05l-0.69-88.41v-0.05l-9.42,0.08l1.49,193.53l6.34-0.05l3.09-0.02l-0.72-92.58l10.88-0.08l64.05-0.5v0.16l0.71,92.42
		l6.34-0.05l2.92-0.02L753.47,279.63z"/>
</g>
<g>
	<path class="st1" d="M293.87,191.56c-1.18-0.09-2.37-0.12-3.56-0.11c-5.58,0.05-10.82,1.05-15.72,3.01
		c-2.83,2.78-5.45,5.88-7.88,9.28c0.26-0.26,0.54-0.51,0.81-0.76C275.19,196.02,283.97,192.22,293.87,191.56z M262.84,351.62
		c2.55,4.13,5.37,7.83,8.48,11.1c5.26,2.42,10.91,3.6,16.94,3.55c1.02-0.01,2.03-0.04,3.04-0.1c-8.87-0.61-16.87-4.01-24.01-10.19
		C265.74,354.64,264.25,353.19,262.84,351.62z M297.83,378.07c-2.43,0.45-4.89,0.73-7.39,0.86c1.15,0.07,2.31,0.1,3.49,0.09
		c2.34-0.02,4.64-0.16,6.93-0.44C299.84,378.45,298.83,378.28,297.83,378.07z M325.83,185.85c-6.85-3.54-13.97-5.74-21.36-6.6
		c-2.55-0.3-5.13-0.44-7.75-0.42c-0.89,0.01-1.77,0.04-2.64,0.09c2.48,0.12,4.93,0.39,7.35,0.82c6.22,1.06,12.24,3.1,18.06,6.11
		l0.05,6.35c2.13,0.38,4.25,0.9,6.35,1.57L325.83,185.85z"/>
	<path class="st1" d="M418.6,362.3v-0.11l-6.34,0.05l-32.46,0.25l-9.43,0.07l-4.52,0.04v-0.05l-1.4-180.99l-6.34,0.05l-3.09,0.02
		l1.49,193.48v0.05l13.96-0.11l48.23-0.37L418.6,362.3z"/>
	<path class="st1" d="M551.55,273.95c-0.15-18.82-2.75-35.63-7.82-50.42c-2.72-7.93-6.03-14.89-9.91-20.88
		c-3.37-5.19-7.17-9.64-11.42-13.38c-7.25-6.37-15.29-10.2-24.11-11.46c-2.32-0.34-4.69-0.5-7.12-0.48
		c-0.93,0.01-1.85,0.04-2.76,0.1c2.25,0.15,4.45,0.46,6.6,0.93c-8.52,1.72-16.25,5.61-23.17,11.66c-1.09,0.95-2.14,1.95-3.17,2.99
		c-3.19,3.23-6.1,6.9-8.73,11.03c0.87-0.96,1.77-1.87,2.7-2.75c7.21-6.79,15.35-10.53,24.43-11.22c0.91-0.07,1.82-0.1,2.75-0.11
		c2.6-0.02,5.11,0.17,7.53,0.56c12.41,2.03,22.5,9.51,30.28,22.45c9.3,15.47,14.05,36.57,14.25,63.3
		c0.22,27.57-4.29,49.18-13.51,64.83c-7.89,13.38-18.37,21.09-31.43,23.11c-2.21,0.35-4.5,0.53-6.87,0.55
		c-1.14,0.01-2.27-0.03-3.38-0.11c-8.88-0.63-16.8-4.09-23.76-10.36c-0.91-0.82-1.8-1.68-2.66-2.58c2.43,3.74,5.08,7.1,7.96,10.09
		c1.25,1.31,2.56,2.54,3.9,3.71c6.55,5.68,13.78,9.34,21.71,10.99c-2.29,0.46-4.64,0.77-7.05,0.9c1.16,0.08,2.34,0.11,3.54,0.1
		c2.26-0.01,4.47-0.17,6.63-0.46c9.84-1.33,18.58-5.51,26.23-12.53c3.47-3.19,6.64-6.87,9.49-11.05
		c4.82-7.04,8.76-15.49,11.81-25.35C549.35,312.41,551.71,294.36,551.55,273.95z"/>
	<path class="st1" d="M605.21,192.45l37.97-0.3l-0.1-12.63v-0.11l-6.34,0.05l-78.86,0.61l0.09,12.69v0.05l13.96-0.11l17.67-0.13
		l6.35-0.05v0.11l1.39,180.63v0.05l9.26-0.08l-1.39-180.67V192.45z"/>
	<path class="st1" d="M760.52,372.05l-0.71-92.47l-0.1-12.5l-0.68-88.57l-6.34,0.05l-2.92,0.03l0.68,88.45l-60.96,0.47l-9.43,0.07
		l-4.53,0.04v-0.05l-0.68-88.41l-6.35,0.05l-3.08,0.03l1.49,193.48v0.05l9.43-0.07l-0.71-92.58l4.53-0.04l64.05-0.49l6.34-0.05v0.11
		l0.71,92.42v0.05L760.52,372.05z"/>
</g>
<g>
	<path class="st1" d="M281.25,355.98c-8.01-6.93-14.23-16.86-18.66-29.78c-4.44-12.92-6.72-27.7-6.85-44.36
		c-0.13-17.5,2.03-33.11,6.48-46.85c4.45-13.73,10.87-24.4,19.25-32.01c5.86-5.31,12.36-8.79,19.52-10.43
		c1.02-0.24,2.05-0.43,3.09-0.59c-2.45-0.36-4.93-0.53-7.43-0.51c-0.94,0.01-1.86,0.04-2.78,0.11c-1.18-0.09-2.37-0.12-3.56-0.11
		c-5.58,0.05-10.82,1.05-15.72,3.01c-2.83,2.78-5.45,5.88-7.88,9.28c-5.17,7.25-9.44,15.9-12.81,25.94
		c-5.37,16-7.98,33.86-7.83,53.6c0.14,18.58,2.82,35.2,8.03,49.86c2.45,6.89,5.36,13.05,8.74,18.48c2.55,4.13,5.37,7.83,8.48,11.1
		c5.26,2.42,10.91,3.6,16.94,3.55c1.02-0.01,2.03-0.04,3.04-0.1c1.09,0.08,2.19,0.11,3.3,0.1c2.44-0.02,4.83-0.18,7.16-0.49
		c-0.96-0.15-1.91-0.34-2.85-0.56C292.53,363.73,286.64,360.65,281.25,355.98z M339.79,185.85c-9.21-4.76-18.92-7.1-29.11-7.02
		c-2.11,0.02-4.18,0.16-6.21,0.42c-1.03,0.13-2.04,0.29-3.04,0.49c6.22,1.06,12.24,3.1,18.06,6.11l0.05,6.35
		c2.13,0.38,4.25,0.9,6.35,1.57c4.76,1.49,9.43,3.73,14.01,6.7L339.79,185.85z"/>
	<path class="st1" d="M370.47,375.16l62.18-0.48l-0.09-12.49l-13.96,0.11l-6.34,0.05l-32.46,0.25v-0.16l-1.39-180.88l-9.43,0.07
		l1.39,180.89v0.04l0.1,12.44V375.16z"/>
	<path class="st1" d="M565.5,273.95c-0.14-18.82-2.75-35.63-7.82-50.42c-5.07-14.79-12.18-26.21-21.33-34.26
		c-9.15-8.05-19.56-12.03-31.23-11.94c-2.33,0.02-4.6,0.18-6.83,0.48c-1.11,0.15-2.2,0.33-3.28,0.55
		c-8.52,1.72-16.25,5.61-23.17,11.66c-1.09,0.95-2.14,1.95-3.17,2.99c-3.19,3.23-6.1,6.9-8.73,11.03c-4,6.26-7.36,13.55-10.08,21.88
		c-5.1,15.58-7.56,33.57-7.4,53.98c0.14,19.16,2.79,36.19,7.95,51.1c2.71,7.85,6,14.75,9.86,20.71c2.43,3.74,5.08,7.1,7.96,10.09
		c1.25,1.31,2.56,2.54,3.9,3.71c6.55,5.68,13.78,9.34,21.71,10.99c1.03,0.21,2.07,0.39,3.12,0.54c2.38,0.33,4.83,0.48,7.33,0.46
		c12.57-0.09,23.52-4.43,32.86-12.99c9.33-8.57,16.43-20.7,21.3-36.4C563.31,312.41,565.66,294.36,565.5,273.95z M542.32,341.1
		c-2.87,4.87-6.09,8.99-9.64,12.36c-3.96,3.75-8.35,6.57-13.17,8.45c-4.75,1.86-9.91,2.81-15.49,2.85
		c-2.43,0.02-4.79-0.16-7.08-0.55c-1.03-0.17-2.05-0.38-3.05-0.63c-6.19-1.56-11.86-4.65-17.01-9.29
		c-7.84-7.06-13.89-17.16-18.16-30.29c-4.26-13.12-6.46-28.35-6.59-45.68c-0.13-16.99,1.93-32.21,6.19-45.65s10.35-23.9,18.27-31.38
		c5.37-5.06,11.25-8.42,17.66-10.09c1.02-0.27,2.05-0.5,3.1-0.68c2.09-0.35,4.23-0.54,6.43-0.56c5.8-0.04,11.15,0.95,16.07,2.98
		c5.14,2.1,9.79,5.34,13.97,9.71c2.81,2.93,5.4,6.37,7.77,10.32c9.29,15.47,14.04,36.57,14.25,63.3
		C556.05,303.84,551.55,325.45,542.32,341.1z"/>
	<path class="st1" d="M657.13,192.15l-0.09-12.74l-13.96,0.11l-6.34,0.04l-64.91,0.5l0.1,12.59v0.16l17.67-0.13l6.35-0.05l2.91-0.03
		l6.35-0.04l4.69-0.04l1.4,180.79l9.26-0.08l-1.4-180.79L657.13,192.15z"/>
	<path class="st1" d="M772.99,178.51l-9.26,0.08l0.68,88.45l-4.7,0.04l-6.34,0.05l-63.88,0.49v-0.16l-0.69-88.3l-9.42,0.08
		l0.68,88.3v0.04l0.1,12.46v0.04l0.71,92.69l9.43-0.07l-0.72-92.58l54.63-0.42l6.34-0.05l2.92-0.02l6.34-0.05l4.7-0.04l0.71,92.58
		l9.26-0.07L772.99,178.51z"/>
</g>
<path class="st2" d="M104.27,332.66L387.6,9.42c-48.52,55.73-151.26,171.46-153.2,173.27c-34.89,39.78-67.85,77.75-101.75,117.61
	C123.19,311.08,113.73,321.87,104.27,332.66c25.4,19.22,50.81,38.43,76.23,57.63c46.33,34.98,92.68,69.92,139.06,104.84
	c46.92,35.33,93.85,70.64,140.78,105.95"/>
<path class="st3" d="M179.35,162.92"/>
</svg>
